<svg xmlns="http://www.w3.org/2000/svg" width="320" height="360" viewBox="0 0 320 360" font-family="-apple-system, BlinkMacSystemFont, 'Segoe UI', Roboto, Helvetica, Arial, sans-serif">
  <defs>
    <linearGradient id="cardBg" x1="0" y1="0" x2="0" y2="1">
      <stop offset="0%" stop-color="#ffffff"/>
      <stop offset="100%" stop-color="#f7f7f7"/>
    </linearGradient>
  </defs>

  <rect x="8" y="8" width="304" height="344" rx="12" ry="12" fill="url(#cardBg)" stroke="#e0e0e0" stroke-width="1"/>

  <text x="20" y="32" font-size="15" font-weight="600" fill="#222">Irrigation Quick Run</text>
  <circle cx="296" cy="26" r="4" fill="#4caf50"/>

  <rect x="20" y="48" width="136" height="56" rx="10" ry="10" fill="#ffffff" stroke="#e0e0e0" stroke-width="1"/>
  <text x="28" y="68" font-size="13" font-weight="600" fill="#222">Front Lawn</text>
  <text x="28" y="90" font-size="11" fill="#888">Off</text>
  <text x="142" y="84" font-size="12" fill="#555" text-anchor="end"></text>

  <rect x="164" y="48" width="136" height="56" rx="10" ry="10" fill="#03a9f4" stroke="#03a9f4" stroke-width="1"/>
  <text x="172" y="68" font-size="13" font-weight="600" fill="#ffffff">Back Yard</text>
  <text x="172" y="90" font-size="11" fill="#e0f7ff">Running</text>
  <text x="292" y="84" font-size="12" fill="#e0f7ff" text-anchor="end">9:42</text>

  <rect x="20" y="112" width="136" height="56" rx="10" ry="10" fill="#ffffff" stroke="#e0e0e0" stroke-width="1"/>
  <text x="28" y="132" font-size="13" font-weight="600" fill="#222">Side Garden</text>
  <text x="28" y="154" font-size="11" fill="#888">Off</text>

  <rect x="164" y="112" width="136" height="56" rx="10" ry="10" fill="#ffffff" stroke="#e0e0e0" stroke-width="1"/>
  <text x="172" y="132" font-size="13" font-weight="600" fill="#222">Drip Line</text>
  <text x="172" y="154" font-size="11" fill="#888">Off</text>

  <rect x="20" y="180" width="84" height="40" rx="10" ry="10" fill="#ffffff" stroke="#e0e0e0" stroke-width="1"/>
  <text x="62" y="205" font-size="12" fill="#222" text-anchor="middle">Rain Delay</text>

  <rect x="112" y="180" width="84" height="40" rx="10" ry="10" fill="#ffffff" stroke="#e0e0e0" stroke-width="1"/>
  <text x="154" y="205" font-size="12" fill="#222" text-anchor="middle">Standby</text>

  <rect x="204" y="180" width="96" height="40" rx="10" ry="10" fill="#ffffff" stroke="#e0e0e0" stroke-width="1"/>
  <text x="252" y="205" font-size="12" fill="#db4437" text-anchor="middle">Stop Watering</text>

  <text x="20" y="252" font-size="11" fill="#888" opacity="0.0">footer</text>
</svg>
